<svg width="248" height="60" viewBox="0 0 248 60" fill="none" xmlns="http://www.w3.org/2000/svg">
<path fill-rule="evenodd" clip-rule="evenodd" d="M4.8461 23.9105C6.46254 21.871 9.28847 14.7869 12.0073 14.1033C16.7938 12.8976 11.7937 11.1175 18.6812 15.2315C19.9654 15.998 22.149 11.4759 25.4645 10.6373C31.1782 9.19125 27.8165 4.40735 40.1943 12.9699C41.8361 14.1056 44.7507 9.5604 48.0362 11.8357C48.2051 11.8648 53.047 20.1709 55.17 23.8897C55.225 24.5747 55.2555 25.2657 55.2555 25.9652C55.2555 27.6336 55.093 29.265 54.784 30.8441H5.43631C5.30985 30.343 5.13354 29.7067 4.94617 29.0205C4.82623 28.0182 4.7625 26.9993 4.7625 25.9652C4.7625 25.2731 4.79112 24.5881 4.8461 23.9105Z" fill="#283E56"/>
<path fill-rule="evenodd" clip-rule="evenodd" d="M8.13293 38.7958L8.11358 38.8179L7.51916 37.6726C7.29455 37.2417 7.08323 36.8042 6.8852 36.3607C6.34065 35.1453 5.89491 33.8879 5.55024 32.6014L5.53774 32.5551L5.44131 32.7366L5.01492 30.1067C4.96506 29.7957 4.92035 29.4838 4.88205 29.1714C4.78746 28.4087 4.727 27.6407 4.70168 26.872L4.6601 25.6053L6.16996 26.1453C6.42145 26.3505 6.64479 26.5873 6.8358 26.8508C7.17405 27.3182 7.40116 27.8584 7.49977 28.4273L7.50492 28.4538C7.6461 28.1537 7.78453 27.8516 7.91789 27.5485C8.32444 26.6284 9.07062 25.9103 10.0087 25.5461C10.9468 25.1812 11.9842 25.2053 12.9048 25.6099C13.5208 25.8806 14.0519 26.3058 14.447 26.8508C14.7843 27.3182 15.0122 27.8584 15.111 28.4261L15.1157 28.4538C15.2573 28.1537 15.3953 27.8516 15.5295 27.5478C15.9361 26.6284 16.6818 25.9103 17.6189 25.5461C18.5571 25.1812 19.5958 25.2053 20.5163 25.6099C21.132 25.8806 21.6636 26.3058 22.0571 26.8508C22.3953 27.3182 22.6234 27.8584 22.722 28.4261L22.7267 28.4538C22.8683 28.1537 23.0068 27.8516 23.141 27.5478C23.5467 26.6284 24.2933 25.9103 25.23 25.5461C26.1681 25.1812 27.2073 25.2053 28.128 25.6099C28.7426 25.8806 29.2746 26.3058 29.6683 26.8508C30.0065 27.3182 30.234 27.8584 30.3337 28.4261L30.3377 28.4538C30.48 28.1537 30.6183 27.8516 30.7522 27.5478C31.1583 26.6284 31.9049 25.9103 32.8412 25.5461C33.7793 25.1812 34.8176 25.2053 35.739 25.6099C36.3532 25.8806 36.8858 26.3058 37.2793 26.8508C37.6176 27.3182 37.8456 27.8584 37.9438 28.4261L37.9494 28.4538C38.091 28.1537 38.2285 27.8516 38.3633 27.5478C38.7684 26.6284 39.5151 25.9103 40.4522 25.5461C41.3904 25.1812 42.4286 25.2053 43.3492 25.6099C43.9648 25.8806 44.4964 26.3058 44.891 26.8508C45.2292 27.3182 45.4567 27.8584 45.5554 28.4261L45.5609 28.4538C45.7022 28.1537 45.8393 27.8516 45.9735 27.5478C46.3801 26.6284 47.1262 25.9103 48.0639 25.5461C49.002 25.1812 50.0397 25.2053 50.9608 25.6099C51.5755 25.8806 52.108 26.3058 52.502 26.8508C52.8407 27.3195 53.0678 27.8606 53.1665 28.4308L53.1712 28.4515C53.2224 28.3434 53.2731 28.2351 53.3229 28.1272L55.3595 26.7045L55.244 28.1215C54.8425 33.024 53.0258 37.6782 50.0047 41.5589C46.5429 46.0073 41.6945 49.1941 36.2268 50.5737C35.7741 50.6881 35.3196 50.7935 34.8604 50.8793L33.2038 51.1903L33.2126 51.1487L32.7452 51.1986C31.8362 51.2964 30.922 51.3449 30.0087 51.3449C29.3129 51.3449 28.6157 51.3168 27.9226 51.2594C27.474 51.2235 27.0265 51.175 26.5807 51.1146L25.8258 51.0126L25.8253 51.0191L25.7312 51.0002L25.6915 50.9946V50.9914L24.895 50.8285C24.1051 50.6666 23.3233 50.4657 22.5513 50.2296C21.6049 49.9379 20.676 49.59 19.7698 49.1889L18.4209 48.5914L18.4555 48.5647L17.9617 48.2988C17.0855 47.8291 16.2424 47.3011 15.4298 46.7295L14.3943 46.0008L14.4137 45.9865L13.8365 45.5117C13.4581 45.1998 13.0922 44.8725 12.7341 44.5385L12.0792 43.9261L12.0903 43.9146C12.0695 43.8939 12.0501 43.8745 12.0303 43.8542L11.0373 42.8335L11.0489 42.8237L10.5722 42.2539C10.4416 42.0984 10.3138 41.9419 10.1887 41.7837C9.76927 41.2581 9.37192 40.7154 8.99632 40.1589C8.79143 39.8544 8.5926 39.5462 8.40055 39.2328L8.13293 38.7958Z" fill="#45EBA5"/>
<path d="M4.65274 32.0568C4.42984 31.1256 4.25682 30.1769 4.13727 29.2152C4.0058 28.1529 3.9375 27.073 3.9375 25.9786C3.9375 25.9078 3.93926 25.935 3.94203 25.7074C3.94393 25.6028 3.9458 25.5188 3.94719 25.441L3.96096 24.7549C3.96285 24.6617 4.00393 24.582 4.07959 24.5257C4.1543 24.4697 4.24293 24.454 4.33293 24.4795L4.99096 24.6642C5.07772 24.6884 5.17918 24.721 5.29733 24.7633C5.41737 24.8069 5.5174 24.846 5.59541 24.8803C6.35639 25.215 6.98254 25.7383 7.44082 26.3723C7.48692 26.4365 7.53117 26.5017 7.57508 26.5681C8.10293 25.7491 8.86989 25.1439 9.74155 24.805C10.8222 24.3851 12.0631 24.3767 13.2061 24.8803C13.9679 25.215 14.5928 25.7383 15.0519 26.3723C15.098 26.4365 15.1428 26.5017 15.1847 26.5681C15.7146 25.7491 16.481 25.1439 17.3531 24.805C18.433 24.3851 19.6737 24.3767 20.8177 24.8803C21.5796 25.215 22.2039 25.7383 22.6621 26.3723C22.7096 26.4365 22.7544 26.5017 22.7959 26.5681C23.3252 25.7491 24.0917 25.1439 24.9629 24.805C26.044 24.3851 27.2844 24.3767 28.4293 24.8803C29.1907 25.215 29.8154 25.7383 30.2732 26.3723C30.3193 26.4365 30.3651 26.5017 30.4074 26.5681C30.9364 25.7491 31.7032 25.1439 32.574 24.805C33.6552 24.3851 34.8959 24.3767 36.0399 24.8803C36.8017 25.215 37.4261 25.7383 37.8848 26.3723C37.9305 26.4365 37.9752 26.5017 38.0182 26.5681C38.5479 25.7491 39.3139 25.1439 40.1856 24.805C41.2667 24.3851 42.5076 24.3767 43.652 24.8803C44.4124 25.215 45.0372 25.7383 45.4964 26.3723C45.542 26.4365 45.5868 26.5017 45.6302 26.5681C46.1594 25.7491 46.9245 25.1439 47.7966 24.805C48.877 24.3851 50.1182 24.3767 51.2616 24.8803C52.0231 25.215 52.6483 25.7383 53.1071 26.3723C53.1536 26.4365 53.1979 26.5017 53.2404 26.5681C53.3783 26.3542 53.5321 26.1561 53.6995 25.9725C54.036 25.604 54.428 25.2977 54.857 25.0615L55.6285 24.6359C55.7205 24.5844 55.825 24.5855 55.916 24.6388C56.008 24.6919 56.0605 24.7819 56.0615 24.8876L56.0745 25.7738L56.0765 25.8529C56.0775 25.9839 56.0805 25.8409 56.0805 25.9786C56.0805 32.007 54.0335 37.5573 50.5958 41.9734C47.0851 46.4854 42.1214 49.8124 36.4058 51.2549L36.3287 51.2743C35.3012 51.5303 34.2582 51.7256 33.2029 51.8547L32.7632 51.9157L32.7618 51.9047C31.856 52.0011 30.9376 52.05 30.0087 52.05C29.2917 52.05 28.5778 52.0195 27.8672 51.9619C27.157 51.9028 26.4455 51.8137 25.7321 51.6964L25.0986 51.5913L25.0967 51.5835C24.1562 51.4039 23.2344 51.1741 22.3331 50.8968C21.5149 50.6448 20.7139 50.355 19.9336 50.0265C19.3226 49.7713 18.7259 49.4949 18.1454 49.1977L17.6213 48.9375L17.6291 48.9269L17.6005 48.9112C17.2396 48.7155 16.8829 48.5111 16.5308 48.2979C15.7792 47.8434 15.0482 47.3474 14.3404 46.8134C14.2416 46.7382 14.1414 46.6617 14.0431 46.5859L13.1605 45.9007L13.1816 45.8864C12.8559 45.6114 12.5384 45.3289 12.2279 45.0401V45.0405C12.0603 44.885 11.896 44.7272 11.7332 44.5671C11.3224 44.1643 10.9279 43.749 10.5473 43.3226L9.97225 42.6789L9.98335 42.6692C9.8546 42.5151 9.72815 42.359 9.6026 42.2022C9.1731 41.6628 8.76375 41.1054 8.37705 40.5308L8.37567 40.5318C8.01709 39.9992 7.67655 39.4515 7.35627 38.889L7.11823 38.4793L7.12418 38.4737C6.79471 37.8706 6.48694 37.2508 6.20358 36.6177C5.59727 35.2626 5.10446 33.85 4.73483 32.3937L4.65039 32.06L4.65274 32.0568ZM5.77451 29.0159C5.81186 29.3177 5.85518 29.6186 5.90364 29.9167C5.96596 29.8013 6.02785 29.686 6.08963 29.5688C6.26731 29.2319 6.44221 28.8876 6.61385 28.536C6.53819 28.1029 6.36469 27.6904 6.10666 27.3328C5.9641 27.1359 5.79483 26.9553 5.601 26.797C5.62494 27.5466 5.68448 28.2859 5.77451 29.0159ZM30.0087 50.3994C30.9021 50.3994 31.7821 50.3513 32.6478 50.2582C32.6857 49.7068 32.8241 49.1645 33.0567 48.6606C33.3936 47.932 33.9287 47.2837 34.6459 46.8047C36.045 45.8697 37.428 44.9151 38.7767 43.9183C40.1062 42.936 41.4139 41.9031 42.6861 40.7958C43.1273 40.4127 43.544 40.0381 43.9316 39.6754C44.346 39.2891 44.7483 38.901 45.1355 38.5111C46.5383 37.1022 47.8585 35.5768 49.073 33.8953C50.2474 32.2692 51.3249 30.4953 52.281 28.5382C52.2049 28.1047 52.0314 27.6915 51.772 27.3328C51.4845 26.934 51.0872 26.6037 50.5991 26.3887C49.8676 26.0669 49.0781 26.0716 48.3896 26.3391C47.7035 26.6055 47.1178 27.136 46.7972 27.8662C45.7344 30.2696 44.502 32.4233 43.1342 34.3794C41.7692 36.3326 40.2773 38.0779 38.6918 39.6717C37.0638 41.308 35.3237 42.802 33.5135 44.2048C31.7152 45.5984 29.8468 46.9035 27.9493 48.1706C27.5054 48.4678 27.1709 48.8665 26.9573 49.314C26.8261 49.5858 26.7399 49.8779 26.7006 50.1774C27.1252 50.2346 27.5572 50.2816 27.9959 50.3172C28.6549 50.3716 29.3263 50.3994 30.0087 50.3994ZM25.0764 49.902C25.1433 49.4547 25.2775 49.0169 25.4741 48.6044C25.8124 47.8974 26.3385 47.2698 27.0343 46.8047C28.9027 45.5569 30.7402 44.2731 32.508 42.9036C34.2629 41.5424 35.9495 40.0947 37.524 38.5111C39.0522 36.9758 40.4836 35.3026 41.7872 33.4384C42.8324 31.9429 43.7986 30.3181 44.669 28.5349C44.5937 28.1022 44.4198 27.6904 44.1614 27.3328C43.8744 26.934 43.4761 26.6037 42.9874 26.3887C42.2575 26.0669 41.4665 26.0716 40.7786 26.3391C40.0918 26.6055 39.5073 27.136 39.1856 27.8662C38.1238 30.2696 36.8903 32.4233 35.5236 34.3794C34.1577 36.3326 32.6654 38.0779 31.0808 39.6717C29.4523 41.308 27.7127 42.802 25.9019 44.2048C24.1037 45.5984 22.2362 46.9035 20.3387 48.1706C20.2681 48.2177 20.1993 48.2685 20.1334 48.321C21.0036 48.7059 21.8989 49.0419 22.8167 49.3241C23.5554 49.5512 24.3089 49.7451 25.0764 49.902ZM18.5603 47.5545C18.6022 47.5074 18.6457 47.4618 18.6899 47.4157C18.9069 47.1923 19.1513 46.9856 19.4231 46.8047C21.2911 45.5569 23.1286 44.2731 24.8969 42.9036C26.6531 41.5424 28.3388 40.0947 29.9146 38.5111C31.4415 36.9758 32.8734 35.3026 34.1766 33.4384C35.2218 31.9429 36.1881 30.3181 37.0574 28.5349C36.9822 28.1022 36.8096 27.6904 36.5511 27.3328C36.2628 26.934 35.865 26.6037 35.3764 26.3887C34.6459 26.0669 33.855 26.0716 33.1674 26.3391C32.4817 26.6055 31.8956 27.136 31.5745 27.8662C30.5126 30.2696 29.2797 32.4233 27.912 34.3794C26.5465 36.3326 25.0551 38.0779 23.4696 39.6717C22.172 40.9757 20.8034 42.1893 19.3839 43.3392C18.2692 44.2419 17.1205 45.1075 15.948 45.9491C16.7246 46.4964 17.5391 47.0012 18.3872 47.4618C18.4445 47.4922 18.5025 47.5236 18.5603 47.5545ZM14.5757 44.9091C15.8585 43.9991 17.1201 43.0568 18.3467 42.0629C19.7221 40.9489 21.0475 39.7731 22.3031 38.5111C23.83 36.9758 25.2628 35.3026 26.565 33.4384C27.6102 31.9429 28.5764 30.3181 29.4471 28.5349C29.3715 28.1022 29.199 27.6904 28.9396 27.3328C28.6517 26.934 28.2539 26.6037 27.7652 26.3887C27.0343 26.0669 26.2439 26.0716 25.5559 26.3391C24.8705 26.6055 24.2855 27.136 23.9634 27.8662C22.9016 30.2696 21.669 32.4233 20.3009 34.3794C18.9369 36.3326 17.4436 38.0779 15.8585 39.6717C15.2027 40.3306 14.5203 40.9743 13.8138 41.6051C13.3302 42.037 12.8457 42.4532 12.3607 42.8575C12.4618 42.9646 12.5647 43.0702 12.668 43.1754C12.8909 43.3992 13.118 43.6193 13.3487 43.8348L13.3482 43.8362C13.6938 44.1587 14.0473 44.4707 14.4092 44.7711C14.464 44.8168 14.5189 44.8629 14.5757 44.9091ZM11.2621 41.6309C11.7608 41.217 12.2472 40.8003 12.7183 40.38C13.3846 39.7842 14.0431 39.1631 14.6915 38.5111C16.2185 36.9758 17.6512 35.3026 18.9539 33.4384C19.9996 31.9429 20.9658 30.3181 21.8361 28.5349C21.7604 28.1022 21.5874 27.6904 21.3281 27.3328C21.0406 26.934 20.6427 26.6037 20.1542 26.3887C19.4231 26.0669 18.6332 26.0716 17.9452 26.3391C17.2595 26.6055 16.6738 27.136 16.3528 27.8662C15.3426 30.1506 14.1825 32.2053 12.9015 34.0761C11.7475 35.7627 10.4947 37.2979 9.16795 38.7174C9.353 39.0182 9.5445 39.3168 9.74295 39.6102C10.1047 40.1479 10.4887 40.6712 10.8915 41.1769C11.0137 41.3302 11.137 41.4814 11.2621 41.6309ZM8.3175 37.2121C9.4577 35.9606 10.5384 34.6137 11.5412 33.1486C12.5117 31.731 13.412 30.2 14.225 28.5349C14.1493 28.1022 13.9758 27.6904 13.7174 27.3328C13.4295 26.934 13.0312 26.6037 12.543 26.3887C11.813 26.0669 11.0221 26.0716 10.3341 26.3391C9.6479 26.6055 9.06275 27.136 8.74203 27.8662C8.3669 28.7141 7.96774 29.5368 7.546 30.3361C7.18887 31.0131 6.81315 31.6752 6.42002 32.3235C6.755 33.5773 7.18653 34.789 7.70655 35.9478C7.8966 36.3751 8.10106 36.7973 8.3175 37.2121ZM49.2941 40.9619C52.1246 37.3247 53.948 32.8657 54.348 28.0022C54.2845 28.1422 54.2165 28.2933 54.142 28.4538C54.083 28.5807 53.9945 28.7696 53.8717 29.0223L53.873 29.0228H53.8717L53.8694 29.0298C52.8407 31.1682 51.6788 33.0964 50.4079 34.8556C49.1363 36.617 47.7583 38.2079 46.303 39.6717C45.8868 40.0898 45.4696 40.4935 45.0539 40.8816C44.6113 41.2941 44.1831 41.6789 43.7688 42.0398C42.4905 43.1527 41.1454 44.214 39.7564 45.2399C38.3855 46.2524 36.9813 47.2223 35.5605 48.1706C35.106 48.4742 34.7673 48.8868 34.5527 49.3501C34.4539 49.5637 34.3833 49.7871 34.3386 50.0164C34.4567 49.9952 34.5753 49.9729 34.6952 49.9499C35.1313 49.8641 35.5683 49.7663 36.0063 49.656C41.3563 48.3063 46.0053 45.1892 49.2941 40.9619Z" fill="#283E56"/>
<path fill-rule="evenodd" clip-rule="evenodd" d="M20.9612 16.5929L21.6889 18.2372L21.192 20.3241L24.0409 21.8266L25.835 21.5788L31.3424 22.9396L28.8667 18.2989L31.8993 14.0913L30.5381 9.26431L28.0625 11.6159L24.5351 12.6682L20.9612 16.5929Z" fill="white"/>
<path fill-rule="evenodd" clip-rule="evenodd" d="M45.141 12.4821C44.77 12.792 40.191 15.1435 40.191 15.1435L38.2724 15.4527L34.9923 19.6603L39.0771 19.4743L41.49 21.5788L43.5938 20.5266L46.1307 23.5589L47.3297 20.1865L46.0759 18.7773L43.3173 19.4209L46.2411 13.6691L45.141 12.4821Z" fill="white"/>
<path fill-rule="evenodd" clip-rule="evenodd" d="M13.5207 14.6481L11.7175 16.4451L10.3885 18.8373L6.83812 23.0634L8.94142 23.311L11.4816 24.4969L12.159 21.9497L14.0787 23.1251L14.8202 17.5565L12.3966 18.601L14.3255 14.4621L13.5207 14.6481Z" fill="white"/>
<path d="M79.176 42V19.408H82.76L91.656 33.264H89.832L98.696 19.408H102.312V42H97.288V27.888L98.184 28.112L92.392 37.136H89.064L83.304 28.112L84.168 27.888V42H79.176ZM113.685 42.352C112.085 42.352 110.634 42 109.333 41.296C108.053 40.5707 107.039 39.5893 106.293 38.352C105.546 37.1147 105.173 35.728 105.173 34.192C105.173 32.656 105.546 31.28 106.293 30.064C107.039 28.848 108.053 27.888 109.333 27.184C110.613 26.4587 112.063 26.096 113.685 26.096C115.306 26.096 116.757 26.448 118.037 27.152C119.317 27.856 120.33 28.8267 121.077 30.064C121.823 31.28 122.197 32.656 122.197 34.192C122.197 35.728 121.823 37.1147 121.077 38.352C120.33 39.5893 119.317 40.5707 118.037 41.296C116.757 42 115.306 42.352 113.685 42.352ZM113.685 37.904C114.389 37.904 115.007 37.7547 115.541 37.456C116.074 37.136 116.479 36.6987 116.757 36.144C117.055 35.568 117.205 34.9173 117.205 34.192C117.205 33.4667 117.055 32.8373 116.757 32.304C116.458 31.7493 116.042 31.3227 115.509 31.024C114.997 30.704 114.389 30.544 113.685 30.544C113.002 30.544 112.394 30.704 111.861 31.024C111.327 31.3227 110.911 31.7493 110.613 32.304C110.314 32.8587 110.165 33.4987 110.165 34.224C110.165 34.928 110.314 35.568 110.613 36.144C110.911 36.6987 111.327 37.136 111.861 37.456C112.394 37.7547 113.002 37.904 113.685 37.904ZM131.546 42.352C130.117 42.352 128.848 42.064 127.738 41.488C126.65 40.8907 125.797 40.08 125.178 39.056C124.56 38.0107 124.25 36.816 124.25 35.472V26.448H129.146V35.408C129.146 35.9413 129.232 36.4 129.402 36.784C129.594 37.168 129.872 37.4667 130.234 37.68C130.597 37.8933 131.034 38 131.546 38C132.272 38 132.848 37.776 133.274 37.328C133.701 36.8587 133.914 36.2187 133.914 35.408V26.448H138.81V35.44C138.81 36.8053 138.501 38.0107 137.882 39.056C137.264 40.08 136.41 40.8907 135.322 41.488C134.234 42.064 132.976 42.352 131.546 42.352ZM152.156 42V33.136C152.156 32.3253 151.9 31.6747 151.388 31.184C150.898 30.672 150.268 30.416 149.5 30.416C148.967 30.416 148.498 30.5333 148.092 30.768C147.687 30.9813 147.367 31.3013 147.132 31.728C146.898 32.1333 146.78 32.6027 146.78 33.136L144.892 32.208C144.892 30.992 145.159 29.9253 145.692 29.008C146.226 28.0907 146.962 27.3867 147.9 26.896C148.86 26.384 149.938 26.128 151.132 26.128C152.284 26.128 153.298 26.4053 154.172 26.96C155.068 27.4933 155.772 28.208 156.284 29.104C156.796 30 157.052 30.9813 157.052 32.048V42H152.156ZM141.884 42V26.448H146.78V42H141.884ZM162.217 42V20.016H167.113V42H162.217ZM158.697 30.608V26.448H170.633V30.608H158.697ZM176.631 42V37.584H182.231C183.596 37.584 184.791 37.3173 185.815 36.784C186.839 36.2293 187.628 35.4293 188.183 34.384C188.737 33.3387 189.015 32.1013 189.015 30.672C189.015 29.2427 188.727 28.016 188.151 26.992C187.596 25.968 186.807 25.1787 185.783 24.624C184.78 24.0693 183.596 23.792 182.231 23.792H176.471V19.408H182.295C184.001 19.408 185.569 19.6853 186.999 20.24C188.449 20.7733 189.708 21.552 190.775 22.576C191.863 23.5787 192.695 24.7733 193.271 26.16C193.868 27.5253 194.167 29.04 194.167 30.704C194.167 32.3467 193.868 33.8613 193.271 35.248C192.695 36.6347 191.873 37.8293 190.807 38.832C189.74 39.8347 188.481 40.6133 187.031 41.168C185.601 41.7227 184.044 42 182.359 42H176.631ZM173.239 42V19.408H178.263V42H173.239ZM203.411 42.32C201.982 42.32 200.702 41.968 199.572 41.264C198.462 40.56 197.577 39.6 196.916 38.384C196.276 37.168 195.956 35.7813 195.956 34.224C195.956 32.6667 196.276 31.28 196.916 30.064C197.577 28.848 198.462 27.888 199.572 27.184C200.702 26.48 201.982 26.128 203.411 26.128C204.457 26.128 205.396 26.3307 206.228 26.736C207.081 27.1413 207.774 27.7067 208.308 28.432C208.841 29.136 209.14 29.9467 209.204 30.864V37.584C209.14 38.5013 208.841 39.3227 208.308 40.048C207.796 40.752 207.113 41.3067 206.26 41.712C205.406 42.1173 204.457 42.32 203.411 42.32ZM204.404 37.904C205.449 37.904 206.292 37.5627 206.932 36.88C207.572 36.176 207.892 35.2907 207.892 34.224C207.892 33.4987 207.742 32.8587 207.444 32.304C207.166 31.7493 206.761 31.3227 206.228 31.024C205.716 30.704 205.118 30.544 204.436 30.544C203.753 30.544 203.145 30.704 202.612 31.024C202.1 31.3227 201.684 31.7493 201.364 32.304C201.065 32.8587 200.916 33.4987 200.916 34.224C200.916 34.928 201.065 35.5573 201.364 36.112C201.662 36.6667 202.078 37.104 202.612 37.424C203.145 37.744 203.742 37.904 204.404 37.904ZM207.7 42V37.808L208.436 34.032L207.7 30.256V26.448H212.5V42H207.7ZM221.611 42.384C220.693 42.384 219.787 42.2667 218.891 42.032C218.016 41.7973 217.195 41.4667 216.427 41.04C215.68 40.592 215.04 40.08 214.507 39.504L217.291 36.688C217.803 37.2427 218.411 37.68 219.115 38C219.819 38.2987 220.587 38.448 221.419 38.448C221.995 38.448 222.432 38.3627 222.731 38.192C223.051 38.0213 223.211 37.7867 223.211 37.488C223.211 37.104 223.019 36.816 222.635 36.624C222.272 36.4107 221.803 36.2293 221.227 36.08C220.651 35.9093 220.043 35.728 219.403 35.536C218.763 35.344 218.155 35.0773 217.579 34.736C217.003 34.3947 216.533 33.9253 216.171 33.328C215.808 32.7093 215.627 31.9307 215.627 30.992C215.627 29.9893 215.883 29.1253 216.395 28.4C216.907 27.6533 217.632 27.0667 218.571 26.64C219.509 26.2133 220.608 26 221.867 26C223.189 26 224.405 26.2347 225.515 26.704C226.645 27.152 227.563 27.824 228.267 28.72L225.483 31.536C224.992 30.96 224.437 30.5547 223.819 30.32C223.221 30.0853 222.635 29.968 222.059 29.968C221.504 29.968 221.088 30.0533 220.811 30.224C220.533 30.3733 220.395 30.5973 220.395 30.896C220.395 31.216 220.576 31.472 220.939 31.664C221.301 31.856 221.771 32.0267 222.347 32.176C222.923 32.3253 223.531 32.5067 224.171 32.72C224.811 32.9333 225.419 33.2213 225.995 33.584C226.571 33.9467 227.04 34.4373 227.403 35.056C227.765 35.6533 227.947 36.4427 227.947 37.424C227.947 38.9387 227.371 40.144 226.219 41.04C225.088 41.936 223.552 42.384 221.611 42.384ZM240.875 42V33.136C240.875 32.3253 240.619 31.6747 240.107 31.184C239.616 30.672 238.987 30.416 238.219 30.416C237.686 30.416 237.216 30.5333 236.811 30.768C236.406 30.9813 236.086 31.3013 235.851 31.728C235.616 32.1333 235.499 32.6027 235.499 33.136L233.611 32.208C233.611 30.992 233.867 29.9253 234.379 29.008C234.891 28.0907 235.606 27.3867 236.523 26.896C237.44 26.384 238.496 26.128 239.691 26.128C240.907 26.128 241.974 26.384 242.891 26.896C243.808 27.3867 244.512 28.08 245.003 28.976C245.515 29.8507 245.771 30.8747 245.771 32.048V42H240.875ZM230.603 42V18.768H235.499V42H230.603Z" fill="white"/>
</svg>
